<svg version="1.1" id="Layer_1" xmlns="http://www.w3.org/2000/svg" xmlns:xlink="http://www.w3.org/1999/xlink" x="0px" y="0px"
	 width="100%" viewBox="0 0 598 143" enable-background="new 0 0 598 143" xml:space="preserve">
<path fill="#02172A" opacity="1.000000" stroke="none" 
	d="
M393.000000,144.000000 
	C262.000000,144.000000 131.500000,144.000000 1.000000,144.000000 
	C1.000000,96.333336 1.000000,48.666668 1.000000,1.000000 
	C200.333328,1.000000 399.666656,1.000000 599.000000,1.000000 
	C599.000000,48.666668 599.000000,96.333336 599.000000,144.000000 
	C530.500000,144.000000 462.000000,144.000000 393.000000,144.000000 
M37.015850,28.152567 
	C34.920353,27.620451 32.824860,27.088335 30.205729,26.105225 
	C28.205345,26.212889 26.204962,26.320551 23.510529,26.413486 
	C19.858082,28.281752 15.573839,29.444050 14.181519,34.709579 
	C14.098742,35.813454 14.015965,36.917324 13.742300,38.664631 
	C13.804375,39.103233 13.866450,39.541840 13.669722,40.486904 
	C13.999559,41.537468 14.329397,42.588028 14.730389,44.298351 
	C17.435392,46.668644 19.934668,49.347584 22.901466,51.325115 
	C26.064358,53.433361 29.756380,54.729244 33.056286,56.655754 
	C36.249630,58.520054 37.695457,61.495186 36.699821,65.167679 
	C35.694927,68.874313 32.812881,70.339844 29.190287,70.652725 
	C22.765314,71.207642 18.025047,68.213234 15.460811,62.098545 
	C14.904508,60.771988 13.974366,59.602203 13.216413,58.360214 
	C12.716876,58.575966 12.217339,58.791718 11.717801,59.007469 
	C12.010893,63.374043 12.303985,67.740616 12.529543,71.101067 
	C15.763083,71.844147 18.135197,72.190514 20.371710,72.940987 
	C26.750078,75.081276 32.904873,74.884308 38.555668,71.077675 
	C46.082272,66.007408 46.291496,55.661633 38.906082,50.443882 
	C35.668034,48.156227 31.850657,46.706085 28.471109,44.595760 
	C25.699442,42.865021 22.793016,41.053593 20.726421,38.616444 
	C19.707094,37.414341 19.651119,34.223831 20.539160,32.784367 
	C23.885122,27.360733 32.442566,28.538540 36.215763,34.642597 
	C37.119698,36.104927 38.202606,37.456623 39.203205,38.859200 
	C39.713226,38.637314 40.223248,38.415428 40.733269,38.193539 
	C40.532154,36.141029 40.331043,34.088520 40.387630,31.445723 
	C40.344639,26.400360 40.301346,26.341841 37.015850,28.152567 
M337.236664,116.788673 
	C335.980347,116.644852 334.724060,116.501038 333.210876,115.958748 
	C332.472229,115.960648 331.733582,115.962547 330.360321,115.805122 
	C329.714264,115.702606 329.068237,115.600090 328.212250,115.067856 
	C327.470337,115.014626 326.728455,114.961395 325.468262,114.743774 
	C325.111877,114.679634 324.755463,114.615494 324.214050,114.104027 
	C323.467407,114.012245 322.720764,113.920464 321.283752,113.585938 
	C312.925812,110.002541 304.567871,106.419136 296.922760,103.141365 
	C286.981598,107.049553 276.995972,110.975212 266.609192,114.659988 
	C265.928802,114.936577 265.248413,115.213173 263.921875,115.572792 
	C263.282990,115.697998 262.644073,115.823212 261.625854,115.680069 
	C260.925171,115.903374 260.224457,116.126678 258.769226,116.417191 
	C257.516113,116.580284 256.263000,116.743385 254.378647,116.631851 
	C252.602097,116.873146 250.825562,117.114441 248.106339,117.332779 
	C179.097504,117.332779 110.088684,117.332779 41.079857,117.332779 
	C41.076103,118.042366 41.072350,118.751945 41.068600,119.461533 
	C42.957619,119.461533 44.846642,119.458916 46.735657,119.461906 
	C115.829773,119.571098 184.923889,119.680809 254.645508,120.166351 
	C255.848541,120.187119 257.051575,120.207886 258.980225,120.470314 
	C259.992340,120.582436 261.004456,120.694557 262.487000,121.200394 
	C263.075226,121.217949 263.663452,121.235504 264.945526,121.533073 
	C266.638275,121.924042 268.331055,122.315010 270.466949,123.131958 
	C271.057373,123.209160 271.647827,123.286362 272.939606,123.669998 
	C279.824890,126.827103 286.801819,129.804611 293.542938,133.244263 
	C295.733551,134.362015 297.014374,134.387558 299.233704,133.265976 
	C306.284668,129.702591 313.578339,126.619545 321.368988,123.499039 
	C321.901672,123.237747 322.434387,122.976448 323.707336,122.610596 
	C325.395050,122.159401 327.082794,121.708206 329.336365,121.474350 
	C329.883209,121.254013 330.430023,121.033684 331.747467,120.792740 
	C332.754150,120.606041 333.760864,120.419342 335.397736,120.493919 
	C336.258942,120.282120 337.120117,120.070328 338.921051,119.862930 
	C343.911316,119.731682 348.901489,119.488358 353.891815,119.486183 
	C417.973999,119.458214 482.056183,119.467964 546.138367,119.447014 
	C548.117737,119.446365 550.097046,119.217682 552.677795,119.031418 
	C552.490784,118.643105 552.303772,118.254791 551.304749,117.521515 
	C547.475037,117.491058 543.645386,117.435806 539.815674,117.433838 
	C474.531555,117.400291 409.247406,117.373360 343.422424,116.925209 
	C341.610565,116.920883 339.798676,116.916550 337.236664,116.788673 
M326.926819,72.648705 
	C332.405212,73.040901 337.883606,73.433098 343.362000,73.825294 
	C343.641418,73.211205 343.920868,72.597107 344.200317,71.983017 
	C336.764221,70.973824 337.708954,65.721397 337.656342,61.008507 
	C337.609955,56.848587 337.645996,52.687740 337.645813,48.527306 
	C337.645660,45.355755 337.645782,42.184208 337.645782,39.012657 
	C347.085358,49.722672 355.257660,60.609776 363.625305,71.344635 
	C364.838867,72.901558 366.988220,73.729065 369.830444,75.658340 
	C369.830444,62.521862 369.844635,51.395508 369.824097,40.269218 
	C369.814758,35.211670 369.568848,30.063766 376.269470,28.761316 
	C376.381561,28.739527 376.385925,28.163660 376.549164,27.215805 
	C370.867950,27.215805 365.313263,27.215805 358.579285,27.215805 
	C361.421021,29.677689 364.744049,31.179302 364.847717,32.877434 
	C365.383972,41.662476 365.096924,50.497780 365.096924,60.496788 
	C363.261230,58.198948 362.113678,56.860409 361.072815,55.443531 
	C354.867188,46.996166 348.695526,38.523838 342.492920,30.074253 
	C339.496033,25.991749 331.947998,24.997465 326.395355,28.720396 
	C334.621918,29.977409 333.217133,35.845104 333.256287,41.000221 
	C333.310608,48.155746 333.057251,55.320312 333.339233,62.465080 
	C333.531738,67.341827 332.361969,70.836082 326.926819,72.648705 
M254.010635,70.569748 
	C245.460663,66.707634 242.379547,57.861595 236.447662,52.430256 
	C239.931915,49.673618 243.665100,47.911625 245.591232,44.967442 
	C250.870316,36.898094 245.297592,27.612226 234.679443,26.788258 
	C227.402878,26.223593 220.052658,26.586000 212.735504,26.602982 
	C212.035706,26.604607 211.337051,27.097404 210.637878,27.362183 
	C218.236191,29.391792 216.401337,35.360176 216.481247,40.375698 
	C216.576614,46.362095 216.635330,52.355026 216.462906,58.338009 
	C216.303040,63.884689 218.897156,70.805473 210.118210,73.048645 
	C217.285110,73.048645 224.451996,73.048645 231.618896,73.048645 
	C231.682388,72.609436 231.745880,72.170235 231.809372,71.731026 
	C230.332275,71.414085 228.670959,71.415474 227.427002,70.695641 
	C226.027740,69.885948 224.080215,68.498322 223.981049,67.235649 
	C223.586136,62.207973 223.818375,57.131039 223.818375,50.339581 
	C226.888580,52.737919 229.009644,53.911896 230.479416,55.639854 
	C233.923141,59.688519 237.049805,64.006508 240.314133,68.208229 
	C244.877670,74.082260 248.985397,75.212234 256.980499,72.544731 
	C256.098907,71.837494 255.409790,71.284691 254.010635,70.569748 
M124.160400,73.601357 
	C125.486122,73.516304 126.837662,73.567749 128.133102,73.322632 
	C133.812149,72.248131 137.956757,67.970688 138.567337,62.675659 
	C139.145599,57.660709 136.135574,52.852570 130.856171,50.465332 
	C129.514832,49.858799 128.099167,49.416630 126.245476,48.722004 
	C127.868324,47.535992 129.211487,46.649921 130.447815,45.633877 
	C135.142914,41.775372 135.716736,34.521999 130.988525,30.807684 
	C128.276459,28.677183 124.516403,27.150927 121.086548,26.819975 
	C114.493240,26.183777 107.799065,26.561634 101.147232,26.602259 
	C100.301971,26.607420 99.459755,27.112526 98.616127,27.386017 
	C106.201492,29.500145 104.384613,35.458771 104.442879,40.495052 
	C104.521767,47.313255 104.244888,54.142090 104.529129,60.949303 
	C104.749390,66.223961 104.235069,70.581657 97.754944,71.290154 
	C97.637131,71.303032 97.580032,71.871201 97.101295,73.603249 
	C106.054642,73.603249 114.644135,73.603249 124.160400,73.601357 
M156.732895,73.609032 
	C168.666916,73.609032 180.600937,73.609032 192.872620,73.609032 
	C193.060837,69.409050 193.220795,65.840050 193.380737,62.271046 
	C192.851105,62.134899 192.321472,61.998756 191.791840,61.862610 
	C191.141129,62.869041 190.411880,63.833866 189.852905,64.888908 
	C186.994720,70.283722 175.204773,72.887466 170.522339,69.061501 
	C169.803955,68.474525 169.001846,67.468636 168.979324,66.636436 
	C168.838547,61.436214 168.908264,56.230289 168.908264,50.252842 
	C172.031052,51.240986 174.732910,51.471924 176.563232,52.855667 
	C178.293808,54.164024 179.108948,56.683228 180.326721,58.669865 
	C180.648041,58.591259 180.969360,58.512657 181.290680,58.434055 
	C181.290680,52.855007 181.290680,47.275959 181.290680,41.696911 
	C180.955154,41.417782 180.619629,41.138653 180.284103,40.859524 
	C178.047714,46.121162 174.201202,47.808666 168.984833,47.043701 
	C168.984833,41.326103 168.984833,35.783081 168.984833,29.587727 
	C173.473969,29.836300 177.932831,29.140797 181.569763,30.556637 
	C185.024353,31.901489 187.619095,35.455051 190.855927,38.266739 
	C190.855927,34.545540 190.855927,30.861919 190.855927,27.338108 
	C178.833588,27.338108 167.184784,27.338108 155.535965,27.338108 
	C158.187057,30.253866 161.768188,31.161942 161.557480,35.958645 
	C161.134171,45.595600 161.429840,55.264065 161.425125,64.919525 
	C161.423615,68.014709 160.807297,70.576065 156.939011,70.881012 
	C156.561218,70.910805 156.312485,72.577797 156.732895,73.609032 
M560.127075,56.709602 
	C567.037903,46.988472 573.948730,37.267338 581.323364,26.893711 
	C568.418396,26.893711 556.396912,26.893711 543.934814,26.893711 
	C543.727234,30.853294 543.535706,34.507347 543.344116,38.161404 
	C543.879089,38.535004 544.414062,38.908607 544.949036,39.282207 
	C547.172302,34.814709 548.710205,29.577137 554.703613,29.740404 
	C559.722900,29.877136 564.748779,29.768482 570.811218,29.768482 
	C560.003906,44.792622 549.983154,58.723248 539.566772,73.203911 
	C554.283020,73.203911 567.963379,73.203911 581.863281,73.203911 
	C581.863281,68.263779 581.863281,63.753601 581.863281,59.243423 
	C581.414795,59.108452 580.966370,58.973480 580.517883,58.838509 
	C579.856323,60.246426 579.384399,61.790470 578.492676,63.033257 
	C576.762695,65.444359 575.002991,69.429817 572.890808,69.679726 
	C565.806519,70.517937 558.561462,69.998047 550.671326,69.998047 
	C553.972168,65.364403 556.845032,61.331520 560.127075,56.709602 
M427.480896,60.788597 
	C423.516815,50.728668 419.608612,40.645973 415.528778,30.633221 
	C414.912506,29.120749 413.496460,27.934153 412.450409,26.596832 
	C411.291534,28.006475 409.829010,29.261713 409.021393,30.849957 
	C401.983093,44.691315 400.589203,61.228218 389.004028,73.041031 
	C393.837769,73.041031 398.729675,73.041031 404.420776,73.041031 
	C398.509094,68.772095 398.885162,68.869972 400.541626,62.505070 
	C401.871735,57.394093 404.672760,55.846260 409.489227,56.649929 
	C410.460480,56.811989 411.481934,56.672199 412.480225,56.673676 
	C418.646667,56.682793 419.648865,57.990261 421.739014,66.264839 
	C422.976624,71.164352 418.734131,70.355034 416.717407,71.915726 
	C416.567108,72.032021 416.697693,72.511246 416.697693,72.885780 
	C423.298370,72.885780 429.888062,72.885780 436.477753,72.885780 
	C430.951721,70.698036 429.611298,65.896927 427.480896,60.788597 
M300.963165,51.353970 
	C298.097656,44.085548 295.295715,36.790764 292.302979,29.575115 
	C291.814178,28.396589 290.483429,27.567234 289.541840,26.576485 
	C288.600006,27.569429 287.261139,28.400473 286.779633,29.581156 
	C283.201996,38.353912 279.956726,47.264431 276.277679,55.992855 
	C273.745789,61.999699 273.341461,69.439919 266.045044,72.989670 
	C270.956177,72.989670 275.867310,72.989670 280.778442,72.989670 
	C275.531403,70.883842 276.482697,67.474258 277.424774,63.405689 
	C278.715790,57.830212 281.596527,55.577991 287.195801,56.633659 
	C288.320282,56.845669 289.518921,56.658958 290.683319,56.665802 
	C295.775391,56.695744 296.956543,58.351318 298.944580,66.176857 
	C300.160004,70.961235 296.354340,70.524155 294.021271,71.772697 
	C293.841003,71.869179 293.873138,72.362602 293.735107,73.003021 
	C300.463470,73.003021 307.097748,73.003021 313.732025,73.003021 
	C308.020813,70.654465 306.629120,65.573143 304.745850,60.874458 
	C303.570953,57.943085 302.394196,55.012432 300.963165,51.353970 
M479.410400,73.622131 
	C482.500275,73.622131 485.590118,73.622131 488.979553,73.622131 
	C489.224335,69.168152 489.425354,65.510231 489.626373,61.852306 
	C489.143036,61.664722 488.659698,61.477142 488.176361,61.289562 
	C487.434906,62.310925 486.393097,63.230446 486.006042,64.371964 
	C484.622223,68.453293 481.469635,69.970535 477.612518,70.359543 
	C475.139954,70.608902 472.621368,70.534271 470.130035,70.436569 
	C465.546173,70.256798 463.143768,68.010826 463.206238,63.196728 
	C463.309967,55.207993 463.440491,47.209011 463.145447,39.229664 
	C462.968109,34.433689 463.348602,30.379269 468.729675,28.720369 
	C468.867279,28.677938 468.845795,28.119415 468.990936,27.244257 
	C462.644287,27.244257 456.413788,27.244257 449.287567,27.244257 
	C450.365753,28.589996 450.698761,29.427887 451.136688,29.486874 
	C455.533325,30.079063 456.122650,33.021484 456.075684,36.727539 
	C455.957489,46.047886 455.988617,55.370953 456.051056,64.692322 
	C456.073792,68.086166 455.336914,70.640930 451.283844,70.853333 
	C450.650909,70.886505 450.053314,71.592850 449.439362,71.987915 
	C449.498505,72.532639 449.557617,73.077370 449.616760,73.622093 
	C459.223572,73.622093 468.830414,73.622093 479.410400,73.622131 
M77.082489,73.611526 
	C78.425873,73.465614 79.769257,73.319702 81.112640,73.173782 
	C81.497536,72.746704 81.882431,72.319626 82.267326,71.892540 
	C73.247849,71.079979 75.086517,65.013817 75.007095,59.938171 
	C74.926422,54.782505 74.798164,49.615646 75.039085,44.469997 
	C75.320930,38.450035 72.321846,31.203621 81.647484,28.197397 
	C81.310715,27.877405 80.973946,27.557415 80.637177,27.237423 
	C74.415100,27.237423 68.193024,27.237423 61.921242,27.237423 
	C64.082977,30.120785 67.301987,32.447281 67.446793,34.951542 
	C68.041077,45.228931 67.719406,55.560509 67.688850,65.872009 
	C67.680450,68.707977 66.465965,70.601242 63.403679,71.056732 
	C62.640675,71.170227 61.972786,71.923180 61.261181,72.382217 
	C61.325333,72.792038 61.389481,73.201851 61.453632,73.611664 
	C66.359116,73.611664 71.264603,73.611664 77.082489,73.611526 
M519.863342,26.567959 
	C515.158936,26.567959 510.454529,26.567959 505.133575,26.567959 
	C505.841095,28.238958 505.990204,29.248556 506.342957,29.325586 
	C511.655762,30.485723 511.545471,34.709564 511.611450,38.693512 
	C511.721466,45.337208 511.716431,51.985146 511.618683,58.629223 
	C511.536865,64.190872 513.063110,70.599777 505.116974,72.918793 
	C511.657318,72.918793 518.197632,72.918793 526.029907,72.918793 
	C518.456116,68.935684 518.452820,68.935684 518.449768,60.803413 
	C518.446716,52.828800 518.425415,44.854053 518.464966,36.879631 
	C518.481445,33.560059 519.029419,30.538122 523.023865,29.600945 
	C523.598633,29.466091 523.982300,28.516853 524.995483,27.288561 
	C523.079773,26.967909 521.884888,26.767897 519.863342,26.567959 
z"/>
<path fill="#EDEDEE" opacity="1.000000" stroke="none" 
	d="
M267.010345,114.900871 
	C276.995972,110.975212 286.981598,107.049553 296.922760,103.141365 
	C304.567871,106.419136 312.925812,110.002541 321.869507,113.951393 
	C323.103180,114.395020 323.751129,114.473190 324.399078,114.551361 
	C324.755463,114.615494 325.111877,114.679634 325.970123,115.069717 
	C327.122040,115.429634 327.772125,115.463608 328.422180,115.497574 
	C329.068237,115.600090 329.714264,115.702606 330.934204,116.117523 
	C332.161285,116.405685 332.814514,116.381447 333.467743,116.357216 
	C334.724060,116.501038 335.980347,116.644852 337.885193,117.074936 
	C340.343567,117.355789 342.153412,117.350380 343.963287,117.344971 
	C409.247406,117.373360 474.531555,117.400291 539.815674,117.433838 
	C543.645386,117.435806 547.475037,117.491058 551.656555,117.999908 
	C552.031006,118.683975 552.053711,118.889648 552.076355,119.095314 
	C550.097046,119.217682 548.117737,119.446365 546.138367,119.447014 
	C482.056183,119.467964 417.973999,119.458214 353.891815,119.486183 
	C348.901489,119.488358 343.911316,119.731682 338.265442,119.666351 
	C336.662384,119.724068 335.714966,119.978355 334.767548,120.232643 
	C333.760864,120.419342 332.754150,120.606041 331.215240,120.624969 
	C330.045502,120.723801 329.408020,120.990402 328.770508,121.257004 
	C327.082794,121.708206 325.395050,122.159401 323.176025,122.493904 
	C322.022583,122.701759 321.400391,123.026314 320.778229,123.350861 
	C313.578339,126.619545 306.284668,129.702591 299.233704,133.265976 
	C297.014374,134.387558 295.733551,134.362015 293.542938,133.244263 
	C286.801819,129.804611 279.824890,126.827103 272.521332,123.284294 
	C271.409973,122.834381 270.716888,122.770180 270.023804,122.705978 
	C268.331055,122.315010 266.638275,121.924042 264.509460,121.172447 
	C263.387817,120.810104 262.702179,120.808388 262.016571,120.806679 
	C261.004456,120.694557 259.992340,120.582436 258.450348,120.105759 
	C256.619659,119.757629 255.318832,119.774040 254.018005,119.790451 
	C184.923889,119.680809 115.829773,119.571098 46.735657,119.461906 
	C44.846642,119.458916 42.957619,119.461533 41.068600,119.461533 
	C41.072350,118.751945 41.076103,118.042366 41.079857,117.332779 
	C110.088684,117.332779 179.097504,117.332779 248.852036,117.568344 
	C251.401779,117.504768 253.205826,117.205620 255.009872,116.906479 
	C256.263000,116.743385 257.516113,116.580284 259.456390,116.542015 
	C260.764099,116.427368 261.384644,116.187897 262.005188,115.948425 
	C262.644073,115.823212 263.282990,115.697998 264.566223,115.656433 
	C265.810486,115.460335 266.410431,115.180603 267.010345,114.900871 
z"/>
<path fill="#D7DCDD" opacity="1.000000" stroke="none" 
	d="
M327.004150,72.239655 
	C332.361969,70.836082 333.531738,67.341827 333.339233,62.465080 
	C333.057251,55.320312 333.310608,48.155746 333.256287,41.000221 
	C333.217133,35.845104 334.621918,29.977409 326.395355,28.720396 
	C331.947998,24.997465 339.496033,25.991749 342.492920,30.074253 
	C348.695526,38.523838 354.867188,46.996166 361.072815,55.443531 
	C362.113678,56.860409 363.261230,58.198948 365.096924,60.496788 
	C365.096924,50.497780 365.383972,41.662476 364.847717,32.877434 
	C364.744049,31.179302 361.421021,29.677689 358.579285,27.215805 
	C365.313263,27.215805 370.867950,27.215805 376.549164,27.215805 
	C376.385925,28.163660 376.381561,28.739527 376.269470,28.761316 
	C369.568848,30.063766 369.814758,35.211670 369.824097,40.269218 
	C369.844635,51.395508 369.830444,62.521862 369.830444,75.658340 
	C366.988220,73.729065 364.838867,72.901558 363.625305,71.344635 
	C355.257660,60.609776 347.085358,49.722672 337.645782,39.012657 
	C337.645782,42.184208 337.645660,45.355755 337.645813,48.527306 
	C337.645996,52.687740 337.609955,56.848587 337.656342,61.008507 
	C337.708954,65.721397 336.764221,70.973824 344.200317,71.983017 
	C343.920868,72.597107 343.641418,73.211205 343.362000,73.825294 
	C337.883606,73.433098 332.405212,73.040901 327.004150,72.239655 
z"/>
<path fill="#DADEDF" opacity="1.000000" stroke="none" 
	d="
M254.365662,70.650818 
	C255.409790,71.284691 256.098907,71.837494 256.980499,72.544731 
	C248.985397,75.212234 244.877670,74.082260 240.314133,68.208229 
	C237.049805,64.006508 233.923141,59.688519 230.479416,55.639854 
	C229.009644,53.911896 226.888580,52.737919 223.818375,50.339581 
	C223.818375,57.131039 223.586136,62.207973 223.981049,67.235649 
	C224.080215,68.498322 226.027740,69.885948 227.427002,70.695641 
	C228.670959,71.415474 230.332275,71.414085 231.809372,71.731026 
	C231.745880,72.170235 231.682388,72.609436 231.618896,73.048645 
	C224.451996,73.048645 217.285110,73.048645 210.118210,73.048645 
	C218.897156,70.805473 216.303040,63.884689 216.462906,58.338009 
	C216.635330,52.355026 216.576614,46.362095 216.481247,40.375698 
	C216.401337,35.360176 218.236191,29.391792 210.637878,27.362183 
	C211.337051,27.097404 212.035706,26.604607 212.735504,26.602982 
	C220.052658,26.586000 227.402878,26.223593 234.679443,26.788258 
	C245.297592,27.612226 250.870316,36.898094 245.591232,44.967442 
	C243.665100,47.911625 239.931915,49.673618 236.447662,52.430256 
	C242.379547,57.861595 245.460663,66.707634 254.365662,70.650818 
M223.657608,41.498215 
	C223.657608,43.741924 223.657608,45.985630 223.657608,48.603760 
	C229.199020,48.263874 234.892929,49.274208 237.282486,44.252464 
	C238.760574,41.146198 238.803207,36.046574 237.199585,33.080090 
	C234.552094,28.182678 228.959457,29.633266 223.656662,29.943922 
	C223.656662,33.629921 223.656662,37.064186 223.657608,41.498215 
z"/>
<path fill="#DBE0E0" opacity="1.000000" stroke="none" 
	d="
M123.697006,73.602303 
	C114.644135,73.603249 106.054642,73.603249 97.101295,73.603249 
	C97.580032,71.871201 97.637131,71.303032 97.754944,71.290154 
	C104.235069,70.581657 104.749390,66.223961 104.529129,60.949303 
	C104.244888,54.142090 104.521767,47.313255 104.442879,40.495052 
	C104.384613,35.458771 106.201492,29.500145 98.616127,27.386017 
	C99.459755,27.112526 100.301971,26.607420 101.147232,26.602259 
	C107.799065,26.561634 114.493240,26.183777 121.086548,26.819975 
	C124.516403,27.150927 128.276459,28.677183 130.988525,30.807684 
	C135.716736,34.521999 135.142914,41.775372 130.447815,45.633877 
	C129.211487,46.649921 127.868324,47.535992 126.245476,48.722004 
	C128.099167,49.416630 129.514832,49.858799 130.856171,50.465332 
	C136.135574,52.852570 139.145599,57.660709 138.567337,62.675659 
	C137.956757,67.970688 133.812149,72.248131 128.133102,73.322632 
	C126.837662,73.567749 125.486122,73.516304 123.697006,73.602303 
M126.771378,53.651287 
	C122.213043,50.055477 117.105843,50.268322 111.494522,51.057838 
	C111.494522,55.787468 111.006569,60.161583 111.701477,64.338928 
	C112.046158,66.410889 114.216171,69.097435 116.171638,69.796791 
	C120.577293,71.372429 125.402267,70.836105 128.273483,66.666054 
	C131.065552,62.610966 130.401978,58.149197 126.771378,53.651287 
M112.222191,47.192486 
	C120.621063,48.263748 124.737137,46.334618 125.733360,40.860046 
	C127.312386,32.182777 121.949951,28.042326 111.646027,30.349773 
	C111.646027,35.695423 111.646027,41.132378 112.222191,47.192486 
z"/>
<path fill="#D4D9DB" opacity="1.000000" stroke="none" 
	d="
M156.368378,73.546936 
	C156.312485,72.577797 156.561218,70.910805 156.939011,70.881012 
	C160.807297,70.576065 161.423615,68.014709 161.425125,64.919525 
	C161.429840,55.264065 161.134171,45.595600 161.557480,35.958645 
	C161.768188,31.161942 158.187057,30.253866 155.535965,27.338108 
	C167.184784,27.338108 178.833588,27.338108 190.855927,27.338108 
	C190.855927,30.861919 190.855927,34.545540 190.855927,38.266739 
	C187.619095,35.455051 185.024353,31.901489 181.569763,30.556637 
	C177.932831,29.140797 173.473969,29.836300 168.984833,29.587727 
	C168.984833,35.783081 168.984833,41.326103 168.984833,47.043701 
	C174.201202,47.808666 178.047714,46.121162 180.284103,40.859524 
	C180.619629,41.138653 180.955154,41.417782 181.290680,41.696911 
	C181.290680,47.275959 181.290680,52.855007 181.290680,58.434055 
	C180.969360,58.512657 180.648041,58.591259 180.326721,58.669865 
	C179.108948,56.683228 178.293808,54.164024 176.563232,52.855667 
	C174.732910,51.471924 172.031052,51.240986 168.908264,50.252842 
	C168.908264,56.230289 168.838547,61.436214 168.979324,66.636436 
	C169.001846,67.468636 169.803955,68.474525 170.522339,69.061501 
	C175.204773,72.887466 186.994720,70.283722 189.852905,64.888908 
	C190.411880,63.833866 191.141129,62.869041 191.791840,61.862610 
	C192.321472,61.998756 192.851105,62.134899 193.380737,62.271046 
	C193.220795,65.840050 193.060837,69.409050 192.872620,73.609032 
	C180.600937,73.609032 168.666916,73.609032 156.368378,73.546936 
z"/>
<path fill="#D5DADB" opacity="1.000000" stroke="none" 
	d="
M559.922485,57.004116 
	C556.845032,61.331520 553.972168,65.364403 550.671326,69.998047 
	C558.561462,69.998047 565.806519,70.517937 572.890808,69.679726 
	C575.002991,69.429817 576.762695,65.444359 578.492676,63.033257 
	C579.384399,61.790470 579.856323,60.246426 580.517883,58.838509 
	C580.966370,58.973480 581.414795,59.108452 581.863281,59.243423 
	C581.863281,63.753601 581.863281,68.263779 581.863281,73.203911 
	C567.963379,73.203911 554.283020,73.203911 539.566772,73.203911 
	C549.983154,58.723248 560.003906,44.792622 570.811218,29.768482 
	C564.748779,29.768482 559.722900,29.877136 554.703613,29.740404 
	C548.710205,29.577137 547.172302,34.814709 544.949036,39.282207 
	C544.414062,38.908607 543.879089,38.535004 543.344116,38.161404 
	C543.535706,34.507347 543.727234,30.853294 543.934814,26.893711 
	C556.396912,26.893711 568.418396,26.893711 581.323364,26.893711 
	C573.948730,37.267338 567.037903,46.988472 559.922485,57.004116 
z"/>
<path fill="#D4D9DB" opacity="1.000000" stroke="none" 
	d="
M427.631836,61.140419 
	C429.611298,65.896927 430.951721,70.698036 436.477753,72.885780 
	C429.888062,72.885780 423.298370,72.885780 416.697693,72.885780 
	C416.697693,72.511246 416.567108,72.032021 416.717407,71.915726 
	C418.734131,70.355034 422.976624,71.164352 421.739014,66.264839 
	C419.648865,57.990261 418.646667,56.682793 412.480225,56.673676 
	C411.481934,56.672199 410.460480,56.811989 409.489227,56.649929 
	C404.672760,55.846260 401.871735,57.394093 400.541626,62.505070 
	C398.885162,68.869972 398.509094,68.772095 404.420776,73.041031 
	C398.729675,73.041031 393.837769,73.041031 389.004028,73.041031 
	C400.589203,61.228218 401.983093,44.691315 409.021393,30.849957 
	C409.829010,29.261713 411.291534,28.006475 412.450378,26.596828 
	C413.496460,27.934153 414.912506,29.120749 415.528778,30.633221 
	C419.608612,40.645973 423.516815,50.728668 427.631836,61.140419 
M411.237427,38.433205 
	C408.814026,43.122677 406.390625,47.812149 403.655884,53.104073 
	C408.832489,53.104073 412.659180,53.104073 416.881744,53.104073 
	C415.015594,48.045151 413.351868,43.534977 411.237427,38.433205 
z"/>
<path fill="#D6DBDD" opacity="1.000000" stroke="none" 
	d="
M301.090729,51.717712 
	C302.394196,55.012432 303.570953,57.943085 304.745850,60.874458 
	C306.629120,65.573143 308.020813,70.654465 313.732025,73.003021 
	C307.097748,73.003021 300.463470,73.003021 293.735107,73.003021 
	C293.873138,72.362602 293.841003,71.869179 294.021271,71.772697 
	C296.354340,70.524155 300.160004,70.961235 298.944580,66.176857 
	C296.956543,58.351318 295.775391,56.695744 290.683319,56.665802 
	C289.518921,56.658958 288.320282,56.845669 287.195801,56.633659 
	C281.596527,55.577991 278.715790,57.830212 277.424774,63.405689 
	C276.482697,67.474258 275.531403,70.883842 280.778442,72.989670 
	C275.867310,72.989670 270.956177,72.989670 266.045044,72.989670 
	C273.341461,69.439919 273.745789,61.999699 276.277679,55.992855 
	C279.956726,47.264431 283.201996,38.353912 286.779633,29.581156 
	C287.261139,28.400473 288.600006,27.569429 289.541840,26.576488 
	C290.483429,27.567234 291.814178,28.396589 292.302979,29.575115 
	C295.295715,36.790764 298.097656,44.085548 301.090729,51.717712 
M292.580505,48.909740 
	C291.145721,45.217869 289.710938,41.525997 287.823425,36.669159 
	C285.388031,43.000385 283.508453,47.886665 281.445953,53.248489 
	C285.947723,53.248489 289.782623,53.248489 294.047943,53.248489 
	C293.566284,51.762314 293.220886,50.696571 292.580505,48.909740 
z"/>
<path fill="#DCE0E1" opacity="1.000000" stroke="none" 
	d="
M13.928524,39.980442 
	C13.866450,39.541840 13.804375,39.103233 14.098469,38.048008 
	C14.516748,36.404648 14.578858,35.377907 14.640970,34.351170 
	C15.573839,29.444050 19.858082,28.281752 24.387260,26.582764 
	C27.085783,26.686766 28.907572,26.621492 30.729362,26.556219 
	C32.824860,27.088335 34.920353,27.620451 37.643665,28.214695 
	C38.890965,29.529884 39.510448,30.782948 40.129932,32.036011 
	C40.331043,34.088520 40.532154,36.141029 40.733269,38.193539 
	C40.223248,38.415428 39.713226,38.637314 39.203205,38.859200 
	C38.202606,37.456623 37.119698,36.104927 36.215763,34.642597 
	C32.442566,28.538540 23.885122,27.360733 20.539160,32.784367 
	C19.651119,34.223831 19.707094,37.414341 20.726421,38.616444 
	C22.793016,41.053593 25.699442,42.865021 28.471109,44.595760 
	C31.850657,46.706085 35.668034,48.156227 38.906082,50.443882 
	C46.291496,55.661633 46.082272,66.007408 38.555668,71.077675 
	C32.904873,74.884308 26.750078,75.081276 20.371710,72.940987 
	C18.135197,72.190514 15.763083,71.844147 12.529543,71.101067 
	C12.303985,67.740616 12.010893,63.374043 11.717801,59.007469 
	C12.217339,58.791718 12.716876,58.575966 13.216413,58.360214 
	C13.974366,59.602203 14.904508,60.771988 15.460811,62.098545 
	C18.025047,68.213234 22.765314,71.207642 29.190287,70.652725 
	C32.812881,70.339844 35.694927,68.874313 36.699821,65.167679 
	C37.695457,61.495186 36.249630,58.520054 33.056286,56.655754 
	C29.756380,54.729244 26.064358,53.433361 22.901466,51.325115 
	C19.934668,49.347584 17.435392,46.668644 14.784951,43.579666 
	C14.535851,41.900803 14.232187,40.940620 13.928524,39.980442 
z"/>
<path fill="#D7DCDD" opacity="1.000000" stroke="none" 
	d="
M478.923828,73.622116 
	C468.830414,73.622093 459.223572,73.622093 449.616760,73.622093 
	C449.557617,73.077370 449.498505,72.532639 449.439362,71.987915 
	C450.053314,71.592850 450.650909,70.886505 451.283844,70.853333 
	C455.336914,70.640930 456.073792,68.086166 456.051056,64.692322 
	C455.988617,55.370953 455.957489,46.047886 456.075684,36.727539 
	C456.122650,33.021484 455.533325,30.079063 451.136688,29.486874 
	C450.698761,29.427887 450.365753,28.589996 449.287567,27.244257 
	C456.413788,27.244257 462.644287,27.244257 468.990936,27.244257 
	C468.845795,28.119415 468.867279,28.677938 468.729675,28.720369 
	C463.348602,30.379269 462.968109,34.433689 463.145447,39.229664 
	C463.440491,47.209011 463.309967,55.207993 463.206238,63.196728 
	C463.143768,68.010826 465.546173,70.256798 470.130035,70.436569 
	C472.621368,70.534271 475.139954,70.608902 477.612518,70.359543 
	C481.469635,69.970535 484.622223,68.453293 486.006042,64.371964 
	C486.393097,63.230446 487.434906,62.310925 488.176361,61.289562 
	C488.659698,61.477142 489.143036,61.664722 489.626373,61.852306 
	C489.425354,65.510231 489.224335,69.168152 488.979553,73.622131 
	C485.590118,73.622131 482.500275,73.622131 478.923828,73.622116 
z"/>
<path fill="#D9DEDF" opacity="1.000000" stroke="none" 
	d="
M76.626289,73.611595 
	C71.264603,73.611664 66.359116,73.611664 61.453632,73.611664 
	C61.389481,73.201851 61.325333,72.792038 61.261181,72.382217 
	C61.972786,71.923180 62.640675,71.170227 63.403679,71.056732 
	C66.465965,70.601242 67.680450,68.707977 67.688850,65.872009 
	C67.719406,55.560509 68.041077,45.228931 67.446793,34.951542 
	C67.301987,32.447281 64.082977,30.120785 61.921242,27.237423 
	C68.193024,27.237423 74.415100,27.237423 80.637177,27.237423 
	C80.973946,27.557415 81.310715,27.877405 81.647484,28.197397 
	C72.321846,31.203621 75.320930,38.450035 75.039085,44.469997 
	C74.798164,49.615646 74.926422,54.782505 75.007095,59.938171 
	C75.086517,65.013817 73.247849,71.079979 82.267326,71.892540 
	C81.882431,72.319626 81.497536,72.746704 81.112640,73.173782 
	C79.769257,73.319702 78.425873,73.465614 76.626289,73.611595 
z"/>
<path fill="#DDE1E2" opacity="1.000000" stroke="none" 
	d="
M520.276611,26.567923 
	C521.884888,26.767897 523.079773,26.967909 524.995483,27.288561 
	C523.982300,28.516853 523.598633,29.466091 523.023865,29.600945 
	C519.029419,30.538122 518.481445,33.560059 518.464966,36.879631 
	C518.425415,44.854053 518.446716,52.828800 518.449768,60.803413 
	C518.452820,68.935684 518.456116,68.935684 526.029907,72.918793 
	C518.197632,72.918793 511.657318,72.918793 505.116974,72.918793 
	C513.063110,70.599777 511.536865,64.190872 511.618683,58.629223 
	C511.716431,51.985146 511.721466,45.337208 511.611450,38.693512 
	C511.545471,34.709564 511.655762,30.485723 506.342957,29.325586 
	C505.990204,29.248556 505.841095,28.238958 505.133575,26.567959 
	C510.454529,26.567959 515.158936,26.567959 520.276611,26.567923 
z"/>
<path fill="#C1C8CB" opacity="1.000000" stroke="none" 
	d="
M40.258781,31.740868 
	C39.510448,30.782948 38.890965,29.529884 37.990112,28.050756 
	C40.301346,26.341841 40.344639,26.400360 40.258781,31.740868 
z"/>
<path fill="#9AA2A9" opacity="1.000000" stroke="none" 
	d="
M343.692871,117.135086 
	C342.153412,117.350380 340.343567,117.355789 338.260254,117.136703 
	C339.798676,116.916550 341.610565,116.920883 343.692871,117.135086 
z"/>
<path fill="#9AA2A9" opacity="1.000000" stroke="none" 
	d="
M254.694260,116.769165 
	C253.205826,117.205620 251.401779,117.504768 249.323364,117.579819 
	C250.825562,117.114441 252.602097,116.873146 254.694260,116.769165 
z"/>
<path fill="#C1C8CB" opacity="1.000000" stroke="none" 
	d="
M30.467545,26.330723 
	C28.907572,26.621492 27.085783,26.686766 24.734285,26.590126 
	C26.204962,26.320551 28.205345,26.212889 30.467545,26.330723 
z"/>
<path fill="#9AA2A9" opacity="1.000000" stroke="none" 
	d="
M254.331757,119.978409 
	C255.318832,119.774040 256.619659,119.757629 258.087524,119.984932 
	C257.051575,120.207886 255.848541,120.187119 254.331757,119.978409 
z"/>
<path fill="#C1C8CB" opacity="1.000000" stroke="none" 
	d="
M13.799123,40.233673 
	C14.232187,40.940620 14.535851,41.900803 14.749374,43.249786 
	C14.329397,42.588028 13.999559,41.537468 13.799123,40.233673 
z"/>
<path fill="#C1C8CB" opacity="1.000000" stroke="none" 
	d="
M14.411243,34.530373 
	C14.578858,35.377907 14.516748,36.404648 14.193913,37.726292 
	C14.015965,36.917324 14.098742,35.813454 14.411243,34.530373 
z"/>
<path fill="#9AA2A9" opacity="1.000000" stroke="none" 
	d="
M335.082642,120.363281 
	C335.714966,119.978355 336.662384,119.724068 337.795563,119.664154 
	C337.120117,120.070328 336.258942,120.282120 335.082642,120.363281 
z"/>
<path fill="#9AA2A9" opacity="1.000000" stroke="none" 
	d="
M266.809753,114.780426 
	C266.410431,115.180603 265.810486,115.460335 264.889282,115.614914 
	C265.248413,115.213173 265.928802,114.936577 266.809753,114.780426 
z"/>
<path fill="#9AA2A9" opacity="1.000000" stroke="none" 
	d="
M328.317200,115.282715 
	C327.772125,115.463608 327.122040,115.429634 326.229248,115.151917 
	C326.728455,114.961395 327.470337,115.014626 328.317200,115.282715 
z"/>
<path fill="#9AA2A9" opacity="1.000000" stroke="none" 
	d="
M261.815521,115.814247 
	C261.384644,116.187897 260.764099,116.427368 259.833679,116.508408 
	C260.224457,116.126678 260.925171,115.903374 261.815521,115.814247 
z"/>
<path fill="#9AA2A9" opacity="1.000000" stroke="none" 
	d="
M333.339294,116.157974 
	C332.814514,116.381447 332.161285,116.405685 331.251495,116.197182 
	C331.733582,115.962547 332.472229,115.960648 333.339294,116.157974 
z"/>
<path fill="#9AA2A9" opacity="1.000000" stroke="none" 
	d="
M324.306580,114.327698 
	C323.751129,114.473190 323.103180,114.395020 322.214661,114.072769 
	C322.720764,113.920464 323.467407,114.012245 324.306580,114.327698 
z"/>
<path fill="#9AA2A9" opacity="1.000000" stroke="none" 
	d="
M262.251770,121.003540 
	C262.702179,120.808388 263.387817,120.810104 264.162537,121.032440 
	C263.663452,121.235504 263.075226,121.217949 262.251770,121.003540 
z"/>
<path fill="#9AA2A9" opacity="1.000000" stroke="none" 
	d="
M329.053436,121.365677 
	C329.408020,120.990402 330.045502,120.723801 330.829956,120.635269 
	C330.430023,121.033684 329.883209,121.254013 329.053436,121.365677 
z"/>
<path fill="#9AA2A9" opacity="1.000000" stroke="none" 
	d="
M270.245361,122.918961 
	C270.716888,122.770180 271.409973,122.834381 272.170654,123.131073 
	C271.647827,123.286362 271.057373,123.209160 270.245361,122.918961 
z"/>
<path fill="#9AA2A9" opacity="1.000000" stroke="none" 
	d="
M321.073608,123.424950 
	C321.400391,123.026314 322.022583,122.701759 322.805908,122.546188 
	C322.434387,122.976448 321.901672,123.237747 321.073608,123.424950 
z"/>
<path fill="#9AA2A9" opacity="1.000000" stroke="none" 
	d="
M552.377075,119.063370 
	C552.053711,118.889648 552.031006,118.683975 552.062622,118.172394 
	C552.303772,118.254791 552.490784,118.643105 552.377075,119.063370 
z"/>
<path fill="#0B1F32" opacity="1.000000" stroke="none" 
	d="
M223.657135,40.998337 
	C223.656662,37.064186 223.656662,33.629921 223.656662,29.943922 
	C228.959457,29.633266 234.552094,28.182678 237.199585,33.080090 
	C238.803207,36.046574 238.760574,41.146198 237.282486,44.252464 
	C234.892929,49.274208 229.199020,48.263874 223.657608,48.603760 
	C223.657608,45.985630 223.657608,43.741924 223.657135,40.998337 
z"/>
<path fill="#0F2335" opacity="1.000000" stroke="none" 
	d="
M127.046394,53.925247 
	C130.401978,58.149197 131.065552,62.610966 128.273483,66.666054 
	C125.402267,70.836105 120.577293,71.372429 116.171638,69.796791 
	C114.216171,69.097435 112.046158,66.410889 111.701477,64.338928 
	C111.006569,60.161583 111.494522,55.787468 111.494522,51.057838 
	C117.105843,50.268322 122.213043,50.055477 127.046394,53.925247 
z"/>
<path fill="#132639" opacity="1.000000" stroke="none" 
	d="
M111.934113,46.880905 
	C111.646027,41.132378 111.646027,35.695423 111.646027,30.349773 
	C121.949951,28.042326 127.312386,32.182777 125.733360,40.860046 
	C124.737137,46.334618 120.621063,48.263748 111.934113,46.880905 
z"/>
<path fill="#1B2E40" opacity="1.000000" stroke="none" 
	d="
M411.462769,38.729004 
	C413.351868,43.534977 415.015594,48.045151 416.881744,53.104073 
	C412.659180,53.104073 408.832489,53.104073 403.655884,53.104073 
	C406.390625,47.812149 408.814026,43.122677 411.462769,38.729004 
z"/>
<path fill="#192C3E" opacity="1.000000" stroke="none" 
	d="
M292.727966,49.270287 
	C293.220886,50.696571 293.566284,51.762314 294.047943,53.248489 
	C289.782623,53.248489 285.947723,53.248489 281.445953,53.248489 
	C283.508453,47.886665 285.388031,43.000385 287.823425,36.669159 
	C289.710938,41.525997 291.145721,45.217869 292.727966,49.270287 
z"/>
</svg>